<svg version="1.1" xmlns="http://www.w3.org/2000/svg" viewBox="240 274 395 340">
    <path fill="rgb(27,85,134)" stroke="rgb(27,85,134)" stroke-width="1" opacity="0.9568627450980393" d="M 428.5 274 L 438.5 274 Q 446.3 276.3 451 281.5 L 457 293.5 L 457 332.5 L 455 342.5 L 451 351.5 L 437.5 368 L 433.5 370 L 428 366.5 L 428 361.5 L 432.5 357 Q 438 358 439 354.5 L 448 339.5 L 448 304 Q 443.3 303 442 306.5 L 438.5 312 L 433 311 L 432 304.5 L 433 302 L 441.5 297 L 448 296 Q 447.6 290.2 443.5 287 L 439.5 284 L 428.5 284 L 422 289.5 L 419 295.5 L 419 339.5 L 416.5 343 L 414.5 344 L 410 340.5 L 409 338.5 L 409 296.5 L 412 286.5 L 417.5 280 L 428.5 274 Z " />
    <path fill="rgb(27,85,134)" stroke="rgb(27,85,134)" stroke-width="1" opacity="0.9568627450980393" d="M 369.5 311 L 382.5 312 Q 390.9 315.1 396 321.5 L 411 348.5 L 432.5 401 L 440 385.5 L 440 382.5 L 444 376.5 L 444 373.5 L 448 367.5 L 448 364.5 L 456 348.5 L 456 345.5 L 468 326.5 L 468 324 Q 470.7 325.1 470 322.5 Q 475.1 315.6 483.5 312 L 495.5 311 Q 497 313.5 502.5 312 L 512 317 L 513.5 320 L 516 321.5 L 517.5 324 Q 519.8 323.3 519 325.5 L 524 335.5 L 524 348.5 L 516 364 L 506.5 371 L 488.5 380 L 485.5 380 L 469.5 388 L 464.5 392 L 461.5 392 L 458.5 395 Q 447.3 397.8 439.5 404 L 434.5 405 L 432.5 407 L 426.5 402 L 361.5 371 L 350 362.5 L 344 351.5 L 343 340.5 L 345 331.5 L 349 324 Q 351.7 325.1 351 322.5 Q 356.9 313.4 369.5 311 Z " />
    <path fill="rgb(27,85,134)" stroke="rgb(27,85,134)" stroke-width="1" opacity="0.9568627450980393" d="M 427.5 318 L 431.5 318 L 435.5 320 L 444 328.5 Q 446.5 332 445 339.5 L 439.5 347 Q 425.9 348.6 421 341.5 Q 420.5 337.5 423.5 337 L 427.5 337 L 435.5 341 L 438 335.5 L 433.5 330 Q 427 328.5 424 323.5 Q 423.5 318.5 427.5 318 Z " />
    <path fill="rgb(27,85,134)" stroke="rgb(27,85,134)" stroke-width="1" opacity="0.9568627450980393" d="M 344.5 377 L 351.5 377 L 363.5 380 L 391.5 392 L 407.5 397 L 414.5 401 L 417.5 401 L 429 407.5 L 423.5 408 Q 421.6 411.6 415.5 411 L 357.5 435 L 341.5 436 Q 330.4 433.1 324 425.5 L 317 412.5 L 317 400.5 Q 320.4 389.9 328.5 384 Q 334.6 378.6 344.5 377 Z " />
    <path fill="rgb(27,85,134)" stroke="rgb(27,85,134)" stroke-width="1" opacity="0.9568627450980393" d="M 519.5 377 L 534.5 380 L 544 386.5 L 546 389.5 L 552 399.5 L 552 413.5 L 544 428 L 530.5 436 L 517.5 437 L 500.5 432 L 463.5 416 L 460.5 416 L 453.5 412 L 445.5 410 L 440 406.5 L 453.5 400 L 467.5 396 L 474.5 392 L 478.5 392 L 480.5 390 L 488.5 388 L 506.5 380 L 510.5 380 L 519.5 377 Z " />
    <path fill="rgb(27,85,134)" stroke="rgb(27,85,134)" stroke-width="1" opacity="0.9568627450980393" d="M 434 409 L 436.5 409 L 448.5 416 L 495.5 438 L 509.5 446 L 516 452.5 L 522 464.5 L 522 475.5 Q 518.6 486.6 510.5 493 L 498.5 499 L 486.5 499 Q 474.7 495.3 468 486.5 L 444 438.5 L 434 409 Z " />
    <path fill="rgb(27,85,134)" stroke="rgb(27,85,134)" stroke-width="1" opacity="0.9568627450980393" d="M 418.5 415 L 421 415.5 L 370.5 448 L 358 459.5 Q 352.3 464.8 354 477.5 L 361.5 490 L 366.5 493 L 382.5 493 L 393 488 L 409.5 462 L 410 464.5 L 398 487 Q 395.3 485.9 396 488.5 Q 389.6 496.1 379.5 500 L 372.5 500 L 357.5 494 L 351 487.5 L 345 473.5 L 345 468.5 L 353 452 L 355 452 Q 353.9 449.3 356.5 450 L 360.5 446 L 378.5 435 L 418.5 415 Z " />
    <path fill="rgb(27,85,134)" stroke="rgb(27,85,134)" stroke-width="1" opacity="0.9568627450980393" d="M 434.5 440 Q 436.8 439.3 436 441.5 L 440 452.5 L 440 462.5 L 436 468 L 429.5 471 Q 428.3 467.2 424 468 L 421.5 464 L 420 463.5 L 420 452.5 L 425 444 L 434.5 440 Z " />
    <path fill="rgb(27,85,134)" stroke="rgb(27,85,134)" stroke-width="1" opacity="0.9568627450980393" d="M 441.5 475 L 450.5 475 L 452 476.5 L 453 478.5 L 453 515.5 L 449 522.5 L 448 527.5 L 445.5 530 Q 442.3 533.3 435.5 533 L 428 529.5 L 428 525.5 L 438.5 513 Q 441.8 511.9 441 514.5 L 442 514.5 Q 445 510.5 444 502.5 Q 442.8 499.8 441.5 502 L 438 504.5 L 432.5 511 L 424.5 512 L 420 510 L 419 506.5 L 422.5 502 Q 424.3 504.8 430.5 503 L 434.5 497 L 444 498 L 444 484.5 L 441.5 484 L 432.5 490 L 423.5 490 L 419 487.5 L 419 481 L 426.5 481 L 431.5 483 L 441.5 475 Z " />
    <path fill="rgb(27,85,134)" stroke="rgb(27,85,134)" stroke-width="1" opacity="0.9568627450980393" d="M 240 564 L 264.5 565 L 272 569.5 Q 277.3 573.2 276 583.5 Q 274.5 590 269.5 593 L 262.5 596 L 250.5 596 L 248 597 L 248 613 L 240 613 L 240 564 Z M 250 572 L 248 574 L 248 589 L 250 590 Q 258 591 264 589 L 268 583 Q 269 576 266 574 L 263 572 L 250 572 Z " />
    <path fill="rgb(27,85,134)" stroke="rgb(27,85,134)" stroke-width="1" opacity="0.9568627450980393" d="M 313.5 564 Q 319.8 562.8 321 566.5 L 321 611.5 L 319.5 613 Q 313.5 614.5 312 611.5 L 312 593 L 291.5 593 L 290 594.5 L 290 613 L 283.5 613 L 282 611.5 L 282 565.5 L 282.5 565 L 290 565 L 290 583.5 L 292.5 586 L 306.5 586 L 307.5 585 L 309.5 586 L 312 583.5 L 312 565.5 L 313.5 564 Z " />
    <path fill="rgb(27,85,134)" stroke="rgb(27,85,134)" stroke-width="1" opacity="0.9568627450980393" d="M 377.5 564 L 396.5 564 L 401.5 565 L 410 570.5 L 413 577.5 L 413 581.5 Q 411.2 588.7 405.5 592 Q 402.5 591.1 404 595.5 L 414 613 Q 407.8 613.9 405 612 L 398 599.5 L 393.5 595 Q 387.4 594.3 385 596 L 385 613 L 377 613 L 376 609.5 L 376 565.5 L 377.5 564 Z M 392 571 Q 390 573 386 572 L 384 574 L 384 587 L 387 589 Q 398 590 403 586 Q 405 583 404 576 L 401 572 L 392 571 Z " />
    <path fill="rgb(27,85,134)" stroke="rgb(27,85,134)" stroke-width="1" opacity="0.9568627450980393" d="M 427.5 564 L 432 565 Q 435.5 579.1 443.5 590 L 447 588.5 L 459.5 564 L 466.5 564 L 467 564.5 L 467 613 L 460.5 613 L 460 612.5 L 460 581.5 Q 458.5 578.5 457 581.5 L 450 599.5 L 446.5 605 Q 441.8 605.8 441 602.5 L 430.5 581 L 429 586.5 L 430 589.5 L 430 591.5 L 429 594.5 L 429 596.5 L 429 613 L 422 613 L 422 565.5 Q 422 564.5 426.5 565 L 427.5 564 Z " />
    <path fill="rgb(27,85,134)" stroke="rgb(27,85,134)" stroke-width="1" opacity="0.9568627450980393" d="M 532.5 564 Q 545.7 562.3 551 568.5 L 547.5 574 Q 543 569.5 532.5 571 L 528 575.5 L 528 578.5 L 530.5 582 L 546.5 589 L 552 593.5 L 554 601.5 Q 552.2 608.7 546.5 612 Q 541.1 615.1 531.5 614 L 526.5 613 L 520 608.5 L 523.5 603 Q 528.2 608.8 540.5 607 L 545 603.5 L 546 599.5 L 543.5 596 L 527.5 589 L 522 584.5 L 520 577.5 L 524 568 L 532.5 564 Z " />
    <path fill="rgb(27,85,134)" stroke="rgb(27,85,134)" stroke-width="1" opacity="0.9568627450980393" d="M 611.5 564 Q 623.6 562.6 629 567 L 626.5 573 Q 620.8 573.7 618.5 571 L 611.5 571 Q 607.5 572.9 607 578.5 L 610.5 583 L 624.5 589 L 629 592.5 L 632 598.5 L 632 602.5 L 630 607.5 L 626.5 611 Q 621 615.5 609.5 614 L 599 609.5 L 601.5 604 L 608.5 607 L 619.5 607 L 623 604.5 L 624 599.5 L 619.5 594 Q 608.9 591.6 602 585.5 Q 598.2 582.3 600 573.5 L 606.5 566 L 611.5 564 Z " />
    <path fill="rgb(27,85,134)" stroke="rgb(27,85,134)" stroke-width="1" opacity="0.9568627450980393" d="M 344 565 L 351.5 565 L 353 566.5 L 358 581.5 L 361 586.5 L 361 589.5 L 367 601.5 L 370 613 Q 362.9 614.8 361 610.5 Q 361.1 604.9 357.5 603 L 351.5 602 L 348.5 603 Q 346.8 600.3 340.5 602 L 333.5 613 L 327 613 L 327 610.5 L 344 565 Z M 348 578 L 341 594 L 348 596 Q 353 597 355 595 L 354 589 L 350 581 Q 351 577 348 578 Z " />
    <path fill="rgb(27,85,134)" stroke="rgb(27,85,134)" stroke-width="1" opacity="0.9568627450980393" d="M 492 565 L 499.5 565 L 500 566.5 L 517 609.5 L 517 613 L 510.5 613 L 509 611.5 L 507 604 L 504.5 603 L 486.5 603 L 482 613 L 475 613 L 475 608.5 L 478 603.5 L 484 584.5 L 492 565 Z M 494 577 L 489 595 L 491 596 L 502 596 L 503 594 L 497 579 Q 498 576 494 577 Z " />
    <path fill="rgb(27,85,134)" stroke="rgb(27,85,134)" stroke-width="1" opacity="0.9568627450980393" d="M 554 565 Q 562.8 563 565 568.5 L 573 584 L 575.5 585 L 588.5 565 L 595 565.5 L 578 594.5 L 578 613 L 571 613 L 571 594.5 L 554 565 Z " />
</svg>